<?xml version="1.0" encoding="iso-8859-1"?>
<!-- Generator: Adobe Illustrator 19.0.0, SVG Export Plug-In . SVG Version: 6.00 Build 0)  -->
<svg version="1.1" id="Capa_1" xmlns="http://www.w3.org/2000/svg" xmlns:xlink="http://www.w3.org/1999/xlink" x="0px" y="0px"
	 viewBox="0 0 433.832 433.832" style="enable-background:new 0 0 433.832 433.832;" xml:space="preserve">
<g>
	<g>
		<path d="M339.367,22.243c-0.003-0.003-0.007-0.007-0.01-0.01c-2.009-2.021-5.276-2.032-7.297-0.023
			c-0.008,0.008-0.015,0.015-0.023,0.023l-21.72,21.76c-65.572-61.454-168.546-58.115-230,7.456
			c-58.656,62.586-58.656,159.957,0,222.544l-21.72,21.72c-2.021,2.009-2.032,5.276-0.023,7.297
			c0.008,0.008,0.015,0.015,0.023,0.023c35.897,36.08,84.358,56.878,135.24,58.04v62.44h-31.16c-2.85,0-5.16,2.31-5.16,5.16
			s2.31,5.16,5.16,5.16h72.6c2.85,0,5.16-2.31,5.16-5.16s-2.31-5.16-5.16-5.16h-31.12v-62.48
			c50.868-1.172,99.313-21.969,135.2-58.04h0C416.887,225.468,416.891,99.772,339.367,22.243z M46.557,162.672
			c0.045-64.137,40.148-121.416,100.4-143.4c-1.44,7.68,0.92,17.04,7.04,28c4.539,7.68,9.832,14.889,15.8,21.52
			c11.08,13.04,15.24,17.92,3.52,31.64c-6.88,8-17.44,10.96-28.6,14c-19.56,5.36-41.72,11.44-44.72,47.32
			c-4,49.36-14.32,54.92-15.48,55.4c-0.4,0-1.36,0.56-3.36-1.2c-2-1.76-3.8-12.32-4.88-19.2c-2.4-15.24-4.88-30.96-15.56-35
			c-4.751-1.507-9.923-0.865-14.16,1.76C46.557,163.232,46.557,162.952,46.557,162.672z M50.397,196.737
			c-1.616-7.067-2.725-14.24-3.32-21.465c4.36-3.24,8-4.72,9.96-4c5.04,1.92,7.44,16.96,9,26.92c1.84,11.76,3.32,21.08,8.32,25.4
			c2.541,2.434,5.884,3.857,9.4,4c1.592-0.002,3.168-0.315,4.64-0.92c11.36-4.64,18.72-26.2,21.88-64
			c2.4-28.68,18.52-33.08,37.16-38.2c12-3.36,24.8-6.8,33.72-17.28c17.4-20.4,7.72-32-3.52-45.04
			c-5.526-6.169-10.43-12.868-14.64-20c-6.76-12-6.72-18.8-5.52-22.48c0.59-2.024,1.936-3.743,3.76-4.8
			c63.654-16.245,130.555,10.128,166,65.44l0.12-0.04c1.92,4,7.16,18.68-10.16,30.76c-15,10.44-22.84,20.96-24,32
			c-1.08,10.36,3.44,20.76,13.84,32c11.424,13.172,15.882,31.002,12,48c-1.971,10.512-9.254,19.249-19.24,23.08
			c-41.04,14.44-65.52,38.68-66.96,65.16C150.829,330.024,69.148,278.745,50.397,196.737z M314.437,168.032
			c-8.24-8.8-12-16.56-11.12-23.76c0.84-8,7.28-16,19.68-24.72c7.027-4.542,12.356-11.277,15.16-19.16
			c8.795,19.57,13.336,40.784,13.32,62.24l0.12-0.04c-0.077,67.061-43.882,126.231-108,145.88c4.32-30.64,46.12-48,59.56-52.76
			c13.237-4.995,22.95-16.478,25.68-30.36C333.41,205.043,328.065,183.769,314.437,168.032z M328.547,299.332
			c-72.604,68.814-186.356,68.806-258.95-0.019l18.04-18.04c65.532,61.497,168.508,58.225,230.005-7.306
			c50.864-54.201,58.534-135.98,18.635-198.694l-0.52-1c-0.147-0.185-0.307-0.359-0.48-0.52c-5.217-7.978-11.119-15.487-17.64-22.44
			l18.04-18.04C407.178,108.712,403.986,227.83,328.547,299.332z"/>
	</g>
</g>
<g>
</g>
<g>
</g>
<g>
</g>
<g>
</g>
<g>
</g>
<g>
</g>
<g>
</g>
<g>
</g>
<g>
</g>
<g>
</g>
<g>
</g>
<g>
</g>
<g>
</g>
<g>
</g>
<g>
</g>
</svg>
