<?xml version="1.0" encoding="iso-8859-1"?>
<!-- Generator: Adobe Illustrator 19.0.0, SVG Export Plug-In . SVG Version: 6.00 Build 0)  -->
<svg version="1.1" id="Capa_1" xmlns="http://www.w3.org/2000/svg" xmlns:xlink="http://www.w3.org/1999/xlink" x="0px" y="0px"
	 viewBox="0 0 447 447" style="enable-background:new 0 0 447 447;" xml:space="preserve">
<g>
	<path style="fill:#ED664C;" d="M429.05,390.8c10.6,10.5,10.6,27.6,0,38.2c-5.3,5.3-12.2,7.9-19.1,7.9s-13.8-2.6-19.1-7.9l-91-91
		c7.2-5.3,14-11.2,20.5-17.7c6.4-6.4,12.2-13.2,17.5-20.3l2,1.5L429.05,390.8z"/>
	<path style="fill:#ED664C;" d="M320.45,63.3c64.6,64.6,70.4,165.7,17.5,236.8c-5.2,7.1-11,13.9-17.5,20.3
		c-6.5,6.5-13.3,12.4-20.5,17.7c-71.1,52.7-172.1,46.8-236.5-17.7c-71-71-71-186.1,0-257.1C134.35-7.7,249.45-7.7,320.45,63.3z
		 M292.15,292.1c55.3-55.4,55.3-145.1,0-200.5c-55.4-55.3-145.1-55.3-200.5,0s-55.3,145.1,0,200.5
		C146.95,347.4,236.75,347.4,292.15,292.1z"/>
</g>
<path style="fill:#FDC75B;" d="M292.15,91.6c55.3,55.3,55.3,145.1,0,200.5c-55.4,55.3-145.1,55.3-200.5,0
	c-55.3-55.4-55.3-145.1,0-200.5S236.75,36.3,292.15,91.6z"/>
<path d="M299.25,84.5C299.25,84.5,299.15,84.5,299.25,84.5c-59.2-59.1-155.5-59.1-214.6,0s-59.1,155.4,0,214.6
	c29.6,29.6,68.4,44.4,107.3,44.4s77.7-14.8,107.3-44.4C358.35,240,358.35,143.7,299.25,84.5z M285.05,285
	c-51.4,51.3-135,51.4-186.3,0c-51.4-51.4-51.4-135,0-186.3c25.7-25.7,59.4-38.5,93.1-38.5s67.5,12.8,93.2,38.5
	C336.45,150,336.45,233.6,285.05,285z"/>
<path d="M351.15,298.7c23.7-35.2,35-77.5,32.1-120.2c-3.2-46.1-23-89.6-55.7-122.3C291.35,20,243.15,0,191.95,0s-99.4,20-135.7,56.2
	c-36.2,36.3-56.2,84.4-56.2,135.6s20,99.4,56.2,135.6c32.7,32.7,76.1,52.5,122.1,55.7c4.5,0.3,9,0.5,13.4,0.5
	c38.1,0,75.4-11.3,106.9-32.5l85,85c7,7,16.2,10.9,26.2,10.9c9.9,0,19.2-3.9,26.2-10.8c7-7,10.9-16.3,10.9-26.2
	c0-9.9-3.9-19.2-10.9-26.1L351.15,298.7z M293.95,330L293.95,330c-32.8,24.3-73.3,36.1-114.2,33.2c-41.3-2.9-80.1-20.6-109.4-49.9
	c-32.5-32.4-50.3-75.6-50.3-121.5s17.9-89,50.3-121.5S145.95,20,191.85,20s89,17.9,121.5,50.3c29.3,29.3,47,68.2,49.9,109.6
	c2.8,40.9-9,81.5-33.4,114.2c-4.9,6.6-10.4,13.1-16.5,19.1C307.15,319.5,300.65,325.1,293.95,330z M422.05,422
	c-3.2,3.2-7.5,5-12.1,5s-8.8-1.8-12-5l-83-83c4.3-3.6,8.5-7.4,12.6-11.5c4-4,7.9-8.3,11.5-12.6l83,83c3.2,3.2,5,7.4,5,12
	C427.05,414.4,425.25,418.7,422.05,422z"/>
<g>
</g>
<g>
</g>
<g>
</g>
<g>
</g>
<g>
</g>
<g>
</g>
<g>
</g>
<g>
</g>
<g>
</g>
<g>
</g>
<g>
</g>
<g>
</g>
<g>
</g>
<g>
</g>
<g>
</g>
</svg>
